<?xml version="1.0" encoding="utf-8"?>
<!-- Generator: Adobe Illustrator 17.1.0, SVG Export Plug-In . SVG Version: 6.00 Build 0)  -->
<!DOCTYPE svg PUBLIC "-//W3C//DTD SVG 1.1//EN" "http://www.w3.org/Graphics/SVG/1.1/DTD/svg11.dtd">
<svg version="1.1" id="money-pig" xmlns="http://www.w3.org/2000/svg" xmlns:xlink="http://www.w3.org/1999/xlink" x="0px" y="0px"
	 viewBox="0 0 1010.0002 837.1582" enable-background="new 0 0 1010.0002 837.1582" xml:space="preserve">
<g>
	<g id="money-pig-money-pig">
		<g>
			<path fill="#5C524C" d="M719.3428,837.1582H577.208c-9.624,0-17.4141-7.8066-17.4141-17.4141v-72.8867
				c-16.75-0.0342-41.4423-0.0342-54.707,0.0342c-15.5766,0.0352-51.3745,0.0352-72.9712,0.0176v72.8349
				c0,9.6075-7.7886,17.4141-17.414,17.4141H270.2212c-7.1421,0-21.4102-3.9971-28.5361-11.1904
				c-6.0191-5.8155-9.4888-14.0635-9.4888-22.958V691.7764C159.0376,645.793,103.939,581.5781,75.8628,509.543l-65.7612-30.4405
				C3.9453,476.2451,0,470.0889,0,463.3037V314.9971c0-9.6079,7.7891-17.4146,17.4141-17.4146h57.5981
				C95.8442,245.001,130.519,192.5386,168.8159,155.5l-3.3838-5.1011c-51.1709-76.8833-63.0234-98.3955-55.4052-114.5512
				c4.728-10.0328,16.5468-16.4776,36.1035-19.6919c40.4057-6.6661,134.226,0.0844,207.6396,70.726
				c42.5825-9.1142,112.1363-15.6787,151.232-15.6787c28.7724,0,56.9189,2.1426,83.6689,6.377
				c9.4893,1.4961,15.9854,10.4072,14.4707,19.9131c-1.4795,9.5063-10.373,16.0371-19.9141,14.4892
				c-24.9462-3.9453-51.2714-5.9512-78.2255-5.9512c-39.3853,0-114.5845,7.3794-152.4898,16.8858
				c-5.9868,1.5137-12.4487-0.3233-16.7851-4.8286c-69.0772-71.7652-163.1016-73.6353-190.5152-66.4077
				c8.0777,17.6005,33.2461,55.4384,49.2149,79.416l11.6655,17.584c4.7959,7.2793,3.4692,16.9887-3.1113,22.7202
				c-40.6954,35.4399-79.7574,94.1098-99.5181,149.4458c-2.4663,6.9389-9.0298,11.5639-16.3936,11.5639H34.8276V452.165
				l62.1397,28.7569c4.2168,1.956,7.4648,5.5107,9.0464,9.8633c25.4751,70.0976,79.6382,132.7128,152.5415,176.2988
				c5.2549,3.1465,8.4692,8.8252,8.4692,14.9472v119.3292c1.1055,0.3066,2.9756,0.8671,3.9448,1.0038l126.3184-0.0342v-72.8526
				c0-4.6259,1.8374-9.0634,5.102-12.3281c3.2652-3.2656,7.7037-5.0849,12.3121-5.0849h0.0171c0,0,67.207,0.0839,90.1987,0
				c21.3081-0.1368,72.3257-0.0176,72.3413,0c9.5908,0.0166,17.3633,7.8056,17.3633,17.413v72.8526h124.7207
				c0.2539-0.0508,0.9345-0.2549,2.3623-0.9522c0.1533-0.8672,0.3584-1.7861,0.6299-2.7383v-69.1621
				c0-5.2539,2.3818-10.2373,6.4619-13.5361c1.3437-1.088,133.9199-110.2148,137.9853-257.8408
				c0.2207-7.7373,0.1006-16.9717,0-26.2569c-0.1035-9.4209-0.2041-18.8769-0.0176-26.9887
				c-5.3056-66.1177-28.2119-126.3008-66.2548-174.0703c-5.9864-7.5166-4.7452-18.4688,2.7715-24.4717
				c7.5693-6.0029,18.4873-4.7442,24.4716,2.7724c38.9258,48.8912,63.6006,109.1602,71.9014,175.2774
				c45.5586-9.624,74.2978-35.8477,75.5039-53.1416c0.749-10.7149-14.0635-16.0366-22.9385-18.2476
				c-9.3379-2.33-15.0185-11.7846-12.6718-21.1211c2.331-9.3369,11.7695-15.0507,21.1053-12.6694
				c48.3819,12.0913,49.9297,44.7427,49.249,54.4697c-2.7382,39.0284-49.1289,74.9263-108.4121,85.8272
				c0.0176,3.9126,0.0684,7.9419,0.1182,11.9555c0.1211,9.7608,0.2217,19.4883,0,27.6172
				c-4.0293,145.9268-115.7393,253.2491-144.4463,278.4678v64.1631c0,2.1943-0.4072,4.3535-1.206,6.3769
				c-0.3067,4.5411-1.3615,14.1846-11.5313,20.4424C737.0791,833.0088,728.9854,837.1582,719.3428,837.1582L719.3428,837.1582z"/>
		</g>
		<g>
			<path fill="#5C524C" d="M296.5459,266.9224c0,20.0322-16.291,36.3403-36.3242,36.3403
				c-20.0664,0-36.3242-16.3081-36.3242-36.3403c0-20.0674,16.2578-36.3931,36.3242-36.3931
				C280.2549,230.5293,296.5459,246.855,296.5459,266.9224z"/>
		</g>
		<g>
			<path fill="#5C524C" d="M705.1943,296.0352c-81.6113,0-148.0185-66.3902-148.0185-148.0176
				C557.1758,66.4072,623.583,0,705.1943,0c81.6094,0,148.0166,66.4072,148.0166,148.0176
				C853.2109,229.645,786.8037,296.0352,705.1943,296.0352L705.1943,296.0352z M705.1943,34.8276
				c-62.413,0-113.1923,50.7793-113.1923,113.19c0,62.4116,50.7793,113.1909,113.1923,113.1909
				c62.4112,0,113.1905-50.7793,113.1905-113.1909C818.3848,85.6069,767.6055,34.8276,705.1943,34.8276L705.1943,34.8276z"/>
		</g>
		<g>
			<g>
				<path fill="#5C524C" d="M705.1592,231.3633c-30.9326,0-52.5479-19.0977-52.5479-46.4263
					c0-8.6558,7.0244-15.6626,15.6787-15.6626c8.6573,0,15.6817,7.0068,15.6817,15.6626c0,13.1123,13.2793,15.0845,21.1875,15.0845
					c7.9414,0,21.2589-1.9722,21.2589-15.0845c0-8.043-0.7159-9.2851-22.2111-19.8628l-11.9882-5.9516
					c-21.2579-10.5098-39.6075-19.5904-39.6075-47.9732c0-27.4809,21.6153-46.6641,52.5479-46.6641
					c30.6787,0,52.1054,19.1832,52.1054,46.6641c0,8.6563-7.0234,15.6787-15.6787,15.6787c-8.6562,0-15.6806-7.0224-15.6806-15.6787
					c0-12.6689-11.2744-15.3218-20.7461-15.3218c-6.376,0-21.1875,1.4961-21.1875,15.3218c0,8.0269,0.7129,9.2676,22.1396,19.8794
					l11.9385,5.9185c21.3086,10.4922,39.7256,19.5566,39.7256,47.9897C757.7754,212.2656,736.127,231.3633,705.1592,231.3633
					L705.1592,231.3633z"/>
			</g>
			<g>
				<path fill="#5C524C" d="M704.4785,94.8066c-8.6543,0-15.6787-7.0229-15.6787-15.6787V61.918
					c0-8.6558,7.0244-15.6621,15.6787-15.6621c8.6572,0,15.6786,7.0063,15.6786,15.6621v17.2099
					C720.1572,87.7837,713.1357,94.8066,704.4785,94.8066L704.4785,94.8066z"/>
			</g>
			<g>
				<path fill="#5C524C" d="M704.4785,249.8306c-8.6543,0-15.6787-7.023-15.6787-15.6787v-17.2095
					c0-8.6558,7.0244-15.6626,15.6787-15.6626c8.6572,0,15.6786,7.0068,15.6786,15.6626v17.2095
					C720.1572,242.8076,713.1357,249.8306,704.4785,249.8306L704.4785,249.8306z"/>
			</g>
		</g>
	</g>
</g>
</svg>
